<?xml version="1.0" encoding="UTF-8" standalone="no"?><!DOCTYPE svg PUBLIC "-//W3C//DTD SVG 1.1//EN" "http://www.w3.org/Graphics/SVG/1.1/DTD/svg11.dtd"><svg width="103px" height="105px" version="1.1" xmlns="http://www.w3.org/2000/svg" xmlns:xlink="http://www.w3.org/1999/xlink" xml:space="preserve" xmlns:serif="http://www.serif.com/" style="fill-rule:evenodd;clip-rule:evenodd;stroke-linejoin:round;stroke-miterlimit:2;"><g><g><path d="M0,61c0,-24.3 19.7,-44 44,-44c24.3,0 44,19.7 44,44c0,24.3 -19.7,44 -44,44c-24.3,0 -44,-19.7 -44,-44Z" style="fill:url(#_Linear1);fill-rule:nonzero;"/></g><g><g><path d="M43.659,44.641c2.935,-1.262 6.86,-3.55 8.852,-5.878c1.531,0.9 3.94,2.06 6.953,2.652c-2.241,2.784 -4.528,6.225 -5.353,8.524c-0.944,0.423 -2.502,1.262 -5.23,2.91c-0.668,-1.047 -1.65,-2.248 -2.89,-2.891c-0.345,-2.102 -1.365,-3.958 -2.332,-5.317Zm7.402,-10.467c-0.668,0.32 -1.075,0.874 -1.075,1.613c-0.675,1.651 -8.042,5.827 -9.627,6.008c-0.79,-0 -1.493,0.485 -1.78,1.224c-0.287,0.736 -0.095,1.578 0.483,2.117c0.03,0.027 3.22,3.03 3.22,6.282c0,1.062 0.817,1.92 1.876,1.92c0.326,0.082 0.913,0.724 1.446,1.525c-1.205,0.75 -2.56,1.609 -4.086,2.583c-0.979,0.622 -1.827,1.429 -2.498,2.375l-6.57,-13.184c-0.886,-1.762 -0.806,-3.861 0.212,-5.55l7.966,-13.318c0.67,-1.116 1.698,-1.975 2.916,-2.436l27.396,-10.304l20.732,10.396c-1.266,3.252 -4.654,11.263 -10.74,21.135c-7.567,12.28 -17.827,14.5 -17.927,14.52c-0.216,0.046 -0.423,0.126 -0.614,0.238l-13.445,8.09c-2.323,1.405 -5.383,0.714 -6.876,-1.554c-0.764,-1.147 -1.034,-2.555 -0.748,-3.903c0.279,-1.345 1.092,-2.521 2.252,-3.257c10.31,-6.585 12.172,-7.309 12.133,-7.351c1.06,0 1.911,-0.77 1.915,-1.833c0.196,-1.204 3.691,-6.84 7.118,-10.277c0.548,-0.55 0.713,-1.378 0.414,-2.097c-0.295,-0.718 -0.997,-1.189 -1.773,-1.19c-5.966,0 -10.264,-3.39 -10.306,-3.426c-0.388,-0.307 -0.86,-0.504 -1.331,-0.504c-0.234,0 -0.465,0.05 -0.683,0.158Zm-0.135,38.54l13.184,-7.934c2.065,-0.505 12.321,-3.584 20.091,-16.196c8.177,-13.267 11.554,-23.076 11.696,-23.488c0.31,-0.913 -0.1,-1.914 -0.96,-2.345l-23.022,-11.55c-0.477,-0.237 -1.032,-0.266 -1.531,-0.08l-28.187,10.606c-2.03,0.769 -3.742,2.2 -4.858,4.062l-7.966,13.32c-1.695,2.818 -1.828,6.317 -0.353,9.255l7.71,15.469c0.156,0.315 0.387,0.57 0.66,0.747c-0.097,1.921 0.429,3.823 1.5,5.42c2.616,3.966 7.971,5.173 12.036,2.714Z" style="fill:#fff;fill-rule:nonzero;"/></g><g><path d="M44,85c-1.097,0 -2,-0.903 -2,-2l0,-10c0,-1.097 0.903,-2 2,-2c1.097,0 2,0.903 2,2l0,10c0,1.097 -0.903,2 -2,2Z" style="fill:#fff;fill-rule:nonzero;"/></g><g><path d="M74.35,4.206l24.75,10.31l-0,7.784c-0,0.667 -0.32,1.106 -0.585,1.357c-0.604,0.559 -1.492,0.693 -2.234,0.337l-27.297,-13.268l5.366,-6.52Zm26.868,22.19c1.139,-1.053 1.786,-2.537 1.782,-4.088l-0,-9.034c-0,-0.758 -0.464,-1.445 -1.185,-1.744l-27.298,-11.378c-0.801,-0.333 -1.731,-0.106 -2.289,0.558l-7.8,9.48c-0.369,0.442 -0.51,1.033 -0.381,1.594c0.13,0.564 0.511,1.039 1.033,1.289l29.454,14.32c0.813,0.399 1.707,0.607 2.613,0.607c1.51,-0.003 2.964,-0.576 4.07,-1.604l0.001,0Z" style="fill:#fff;fill-rule:nonzero;"/></g><g><path d="M50.259,72.922l0.682,-0.407c1.424,1.692 2.203,3.835 2.199,6.046c0,5.29 -4.328,9.597 -9.642,9.597c-5.314,0 -9.641,-4.307 -9.641,-9.597c-0.004,-3.287 1.691,-6.352 4.477,-8.096c2.623,3.647 8.026,4.787 11.925,2.457Zm6.741,5.643c0,-3.735 -1.616,-7.34 -4.427,-9.896c-0.626,-0.575 -1.563,-0.669 -2.291,-0.23l-2.006,1.193c-2.287,1.363 -5.437,0.65 -6.91,-1.554c-0.188,-0.282 -0.347,-0.582 -0.475,-0.895c-0.409,-0.97 -1.539,-1.438 -2.514,-1.04c-5.087,2.08 -8.377,6.96 -8.377,12.422c0,7.408 6.055,13.435 13.498,13.435c7.443,0 13.498,-6.027 13.502,-13.435Z" style="fill:#fff;fill-rule:nonzero;"/></g></g></g><defs><linearGradient id="_Linear1" x1="0" y1="0" x2="1" y2="0" gradientUnits="userSpaceOnUse" gradientTransform="matrix(49.65,33.74,-33.74,49.65,26.17,46.49)"><stop offset="0" style="stop-color:#009411;stop-opacity:1"/><stop offset="1" style="stop-color:#d0ffd5;stop-opacity:1"/></linearGradient></defs></svg>