<?xml version="1.0" encoding="UTF-8" standalone="no"?><!DOCTYPE svg PUBLIC "-//W3C//DTD SVG 1.1//EN" "http://www.w3.org/Graphics/SVG/1.1/DTD/svg11.dtd"><svg width="126px" height="105px" version="1.1" xmlns="http://www.w3.org/2000/svg" xmlns:xlink="http://www.w3.org/1999/xlink" xml:space="preserve" xmlns:serif="http://www.serif.com/" style="fill-rule:evenodd;clip-rule:evenodd;stroke-linejoin:round;stroke-miterlimit:2;"><g><g><path d="M0,61c0,-24.3 19.7,-44 44,-44c24.3,0 44,19.7 44,44c0,24.3 -19.7,44 -44,44c-24.3,0 -44,-19.7 -44,-44Z" style="fill:url(#_Linear1);fill-rule:nonzero;"/></g><g><g><g><path d="M66,40l28,0l0,48l-28,0l0,-48Zm32,50l0,-52c0,-1.097 -0.903,-2 -2,-2l-32,0c-1.097,0 -2,0.903 -2,2l0,52c0,1.097 0.903,2 2,2l32,0c1.104,0 2,-0.892 2,-2Z" style="fill:#fff;fill-rule:nonzero;stroke:#fff;stroke-width:1px;"/></g><g><path d="M98,60l24,0l0,28l-24,0l0,-28Zm28,30l0,-32c0,-1.097 -0.903,-2 -2,-2l-28,0c-1.097,0 -2,0.903 -2,2l0,32c0,1.097 0.903,2 2,2l28,0c1.104,0 2,-0.892 2,-2Z" style="fill:#fff;fill-rule:nonzero;stroke:#fff;stroke-width:1px;"/></g><g><path d="M38,56l24,0l0,32l-24,0l0,-32Zm28,34l0,-36c0,-1.097 -0.903,-2 -2,-2l-28,0c-1.097,0 -2,0.903 -2,2l0,36c0,1.097 0.903,2 2,2l28,0c1.104,0 2,-0.892 2,-2Z" style="fill:#fff;fill-rule:nonzero;stroke:#fff;stroke-width:1px;"/></g><g><path d="M112,84l-4,0c-3.308,0 -6,-2.692 -6,-6c0,-1.097 0.903,-2 2,-2c1.097,0 2,0.903 2,2c0,1.104 0.9,2 2,2l4,0c1.1,0 2,-0.896 2,-2c0,-1.104 -0.9,-2 -2,-2l-4,0c-1.097,0 -2,-0.903 -2,-2c0,-1.097 0.903,-2 2,-2l4,0c1.1,0 2,-0.896 2,-2c0,-1.104 -0.9,-2 -2,-2l-4,0c-1.1,0 -2,0.896 -2,2c0,1.097 -0.903,2 -2,2c-1.097,0 -2,-0.903 -2,-2c0,-3.308 2.692,-6 6,-6l4,0c3.308,0 6,2.692 6,6c0,1.536 -0.58,2.936 -1.532,4c0.987,1.098 1.533,2.524 1.532,4c0,3.308 -2.692,6 -6,6Z" style="fill:#fff;fill-rule:nonzero;stroke:#fff;stroke-width:1px;"/></g><g><path d="M56.004,84l-12,0c-0.808,-0 -1.539,-0.49 -1.848,-1.236c-0.307,-0.746 -0.136,-1.607 0.432,-2.18l10.584,-10.584c0.532,-0.529 0.831,-1.25 0.828,-2c0,-2.204 -1.792,-4 -4,-4c-2.208,0 -4,1.796 -4,4c0,1.097 -0.903,2 -2,2c-1.097,0 -2,-0.903 -2,-2c0,-4.412 3.588,-8 8,-8c4.412,0 8,3.588 8,8c0,1.824 -0.712,3.54 -2,4.828l-7.172,7.172l7.176,0c1.097,0 2,0.903 2,2c0,1.097 -0.903,2 -2,2Z" style="fill:#fff;fill-rule:nonzero;stroke:#fff;stroke-width:1px;"/></g><g><path d="M79.999,72c-1.097,0 -2,-0.903 -2,-2l0,-17.396l-0.336,0.504c-0.609,0.911 -1.859,1.161 -2.772,0.556c-0.911,-0.609 -1.162,-1.859 -0.556,-2.772l4,-6c0.001,-1.096 0.904,-1.998 2,-1.998c1.097,0 2,0.903 2,2c-0,0.395 -0.117,0.781 -0.336,1.11l0,24c-0.001,1.095 -0.902,1.996 -1.997,1.996c-0.001,0 -0.002,0 -0.003,-0Z" style="fill:#fff;fill-rule:nonzero;stroke:#fff;stroke-width:1px;"/></g><g><path d="M84,72l-8,0c-1.097,0 -2,-0.903 -2,-2c0,-1.097 0.903,-2 2,-2l8,0c1.097,0 2,0.903 2,2c0,1.097 -0.903,2 -2,2Z" style="fill:#fff;fill-rule:nonzero;stroke:#fff;stroke-width:1px;"/></g></g><g><path d="M78.31,22.505l-4.542,3.265l1.736,-5.283c0.266,-0.823 -0.032,-1.73 -0.735,-2.234l-4.539,-3.266l5.613,0c0.87,0.003 1.649,-0.557 1.923,-1.383l1.736,-5.283l1.732,5.283c0.275,0.825 1.053,1.384 1.923,1.383l5.613,0l-4.54,3.266c-0.703,0.504 -1,1.411 -0.734,2.234l1.736,5.283l-4.543,-3.265c-0.709,-0.509 -1.67,-0.509 -2.379,0Zm11.942,10.111c0.703,-0.504 1.001,-1.411 0.735,-2.234l-3.198,-9.752l8.379,-6.026c0.703,-0.504 1.002,-1.412 0.735,-2.235c-0.276,-0.824 -1.053,-1.383 -1.922,-1.382l-10.358,0l-3.203,-9.752c-0.545,-1.647 -3.295,-1.647 -3.84,0l-3.203,9.752l-10.357,0c-0.869,-0.002 -1.647,0.557 -1.922,1.382c-0.267,0.823 0.032,1.731 0.735,2.235l8.38,6.026l-3.199,9.752c-0.266,0.823 0.032,1.73 0.735,2.234c0.71,0.508 1.664,0.512 2.375,0l8.379,-6.027l8.38,6.027c0.705,0.511 1.665,0.511 2.37,0l-0.001,0Z" style="fill:#fff;fill-rule:nonzero;stroke:#fff;stroke-width:1px;"/></g></g></g><defs><linearGradient id="_Linear1" x1="0" y1="0" x2="1" y2="0" gradientUnits="userSpaceOnUse" gradientTransform="matrix(49.65,33.74,-33.74,49.65,26.17,46.49)"><stop offset="0" style="stop-color:#009411;stop-opacity:1"/><stop offset="1" style="stop-color:#d0ffd5;stop-opacity:1"/></linearGradient></defs></svg>