<?xml version="1.0" encoding="UTF-8" standalone="no"?><!DOCTYPE svg PUBLIC "-//W3C//DTD SVG 1.1//EN" "http://www.w3.org/Graphics/SVG/1.1/DTD/svg11.dtd"><svg width="119px" height="106px" version="1.1" xmlns="http://www.w3.org/2000/svg" xmlns:xlink="http://www.w3.org/1999/xlink" xml:space="preserve" xmlns:serif="http://www.serif.com/" style="fill-rule:evenodd;clip-rule:evenodd;stroke-linejoin:round;stroke-miterlimit:2;"><g><g><path d="M0,62c0,-24.3 19.7,-44 44,-44c24.3,0 44,19.7 44,44c0,24.3 -19.7,44 -44,44c-24.3,0 -44,-19.7 -44,-44Z" style="fill:url(#_Linear1);fill-rule:nonzero;"/></g><g><g><g><g><path d="M101.563,3.875c7.478,0 13.562,6.083 13.562,13.56l0,54.245c0,7.478 -6.084,13.561 -13.563,13.561l-58.124,0c-7.48,0 -13.563,-6.083 -13.563,-13.56l0,-54.246c0,-7.478 6.084,-13.561 13.563,-13.561l58.125,0.001Zm17.437,67.813l0,-54.25c0,-9.615 -7.824,-17.438 -17.438,-17.438l-58.124,-0c-9.615,-0 -17.438,7.824 -17.438,17.438l0,54.25c0,9.613 7.824,17.437 17.438,17.437l58.124,-0c9.614,-0 17.438,-7.824 17.438,-17.438l0,0.001Z" style="fill:#fff;fill-rule:nonzero;stroke:#fff;stroke-width:1px;"/></g><g><path d="M101.563,11.625c3.187,0.004 5.808,2.625 5.812,5.812l0,54.241c-0.004,3.187 -2.626,5.808 -5.813,5.812l-58.124,0c-3.187,-0.004 -5.809,-2.625 -5.813,-5.812l0,-54.241c0.004,-3.187 2.626,-5.808 5.813,-5.812l58.125,0Zm9.687,60.063l0,-54.25c0,-5.34 -4.348,-9.688 -9.688,-9.688l-58.124,0c-5.34,0 -9.688,4.348 -9.688,9.688l0,54.25c0,5.34 4.348,9.687 9.688,9.687l58.124,0c5.34,0 9.688,-4.348 9.688,-9.688l0,0.001Z" style="fill:#fff;fill-rule:nonzero;stroke:#fff;stroke-width:1px;"/></g></g><g><path d="M43.438,19.37c-0.514,0.007 -1.007,-0.204 -1.357,-0.58c-0.377,-0.35 -0.588,-0.843 -0.581,-1.357c0,-0.504 0.194,-1.008 0.581,-1.356c0.698,-0.737 2.015,-0.737 2.713,0c0.387,0.348 0.581,0.852 0.581,1.356c0,0.504 -0.194,1.007 -0.543,1.356c-0.369,0.372 -0.871,0.581 -1.395,0.581l0.001,-0Z" style="fill:#fff;fill-rule:nonzero;stroke:#fff;stroke-width:1px;"/></g><g><path d="M101.567,19.37c-0.505,0.003 -0.992,-0.191 -1.356,-0.542c-0.372,-0.369 -0.581,-0.871 -0.581,-1.395c-0,-0.504 0.194,-1.008 0.581,-1.356c0.737,-0.737 2.015,-0.737 2.713,0c0.387,0.348 0.581,0.852 0.581,1.356c-0,0.504 -0.194,1.007 -0.581,1.356c-0.35,0.377 -0.843,0.588 -1.357,0.581Z" style="fill:#fff;fill-rule:nonzero;stroke:#fff;stroke-width:1px;"/></g><g><path d="M101.567,73.62c-0.505,0.003 -0.992,-0.191 -1.356,-0.542c-0.372,-0.369 -0.581,-0.871 -0.581,-1.395c-0,-0.504 0.194,-1.008 0.581,-1.356c0.698,-0.737 2.015,-0.737 2.713,0c0.387,0.348 0.581,0.852 0.581,1.356c-0,0.504 -0.194,1.007 -0.581,1.356c-0.35,0.377 -0.843,0.588 -1.357,0.581Z" style="fill:#fff;fill-rule:nonzero;stroke:#fff;stroke-width:1px;"/></g><g><path d="M43.438,73.62c-0.514,0.007 -1.007,-0.204 -1.357,-0.58c-0.377,-0.35 -0.588,-0.843 -0.581,-1.357c0,-0.504 0.194,-1.008 0.581,-1.356c0.698,-0.737 2.015,-0.737 2.713,0c0.387,0.348 0.581,0.852 0.581,1.356c0,0.504 -0.194,1.007 -0.581,1.356c-0.35,0.377 -0.843,0.588 -1.357,0.581l0.001,0Z" style="fill:#fff;fill-rule:nonzero;stroke:#fff;stroke-width:1px;"/></g><g><path d="M47.317,93c-1.063,-0.001 -1.937,-0.875 -1.937,-1.938l0,-3.874c0.024,-1.046 0.891,-1.894 1.938,-1.894c1.046,0 1.913,0.848 1.937,1.894l0,3.874c0,1.07 -0.868,1.938 -1.938,1.938Z" style="fill:#fff;fill-rule:nonzero;stroke:#fff;stroke-width:1px;"/></g><g><path d="M97.688,93c-1.063,0 -1.938,-0.875 -1.938,-1.938l0,-3.874c0.024,-1.046 0.891,-1.894 1.938,-1.894c1.046,0 1.913,0.848 1.937,1.894l0,3.874c0,1.07 -0.868,1.938 -1.938,1.938l0.001,0Z" style="fill:#fff;fill-rule:nonzero;stroke:#fff;stroke-width:1px;"/></g></g><g><g><path d="M49.677,45c0,1.104 -0.861,2 -1.922,2c-1.06,0 -1.922,-0.896 -1.922,-2c0,-1.104 0.861,-2 1.922,-2c1.06,0 1.922,0.896 1.922,2Zm3.823,0c0,-3.308 -2.58,-6 -5.75,-6c-3.17,0 -5.75,2.692 -5.75,6c0,3.308 2.58,6 5.75,6c3.17,0 5.75,-2.692 5.75,-6Z" style="fill:#fff;fill-rule:nonzero;stroke:#fff;stroke-width:1px;"/></g><g><path d="M63.087,47l-11.5,0c-1.058,0 -1.917,-0.896 -1.917,-2c0,-1.104 0.859,-2 1.917,-2l11.5,0c1.058,0 1.916,0.896 1.916,2c0,1.104 -0.858,2 -1.916,2Z" style="fill:#fff;fill-rule:nonzero;stroke:#fff;stroke-width:1px;"/></g></g><g><path d="M72.889,34.857l27.222,0l0,19.276l-27.221,0l-0.001,-19.276Zm31.111,21.214l0,-23.141c-0.004,-1.06 -0.877,-1.93 -1.937,-1.93c-0.002,-0 -0.005,-0 -0.007,0l-31.112,0c-1.062,-0.004 -1.94,0.867 -1.944,1.929l0,23.141c0,1.065 0.871,1.929 1.944,1.929l31.112,0c1.062,0.004 1.939,-0.866 1.944,-1.928Z" style="fill:#fff;fill-rule:nonzero;stroke:#fff;stroke-width:1px;"/></g><g><path d="M94,49.993c-0.52,0 -1,-0.2 -1.4,-0.56c-0.4,-0.44 -0.6,-0.92 -0.6,-1.44c0,-0.52 0.2,-1.04 0.56,-1.4c0.84,-0.8 2.12,-0.76 2.84,0c0.4,0.36 0.6,0.88 0.6,1.4c0,0.52 -0.2,1.04 -0.6,1.4c-0.36,0.4 -0.88,0.6 -1.4,0.6Z" style="fill:#fff;fill-rule:nonzero;stroke:#fff;stroke-width:1px;"/></g><g><path d="M86,49.985c-0.52,0 -1.04,-0.2 -1.4,-0.6c-0.4,-0.36 -0.6,-0.88 -0.6,-1.4c0,-0.52 0.2,-1.04 0.6,-1.4c0.72,-0.76 2.08,-0.76 2.8,0c0.4,0.36 0.6,0.88 0.6,1.4c0,0.52 -0.2,1.04 -0.6,1.4c-0.36,0.4 -0.88,0.6 -1.4,0.6Z" style="fill:#fff;fill-rule:nonzero;stroke:#fff;stroke-width:1px;"/></g><g><path d="M78,49.993c-0.52,0 -1,-0.2 -1.4,-0.56c-0.4,-0.4 -0.6,-0.92 -0.6,-1.44c0,-0.52 0.2,-1.04 0.56,-1.4c0.84,-0.8 2.12,-0.76 2.84,0c0.4,0.36 0.6,0.88 0.6,1.4c0,0.52 -0.2,1.04 -0.6,1.4c-0.36,0.4 -0.88,0.6 -1.4,0.6Z" style="fill:#fff;fill-rule:nonzero;stroke:#fff;stroke-width:1px;"/></g><g><path d="M94,42.993c-0.52,0 -1,-0.2 -1.4,-0.56c-0.4,-0.4 -0.6,-0.92 -0.6,-1.44c0,-0.52 0.2,-1.04 0.56,-1.4c0.84,-0.8 2.12,-0.76 2.84,0c0.4,0.36 0.6,0.88 0.6,1.4c0,0.52 -0.2,1.04 -0.6,1.4c-0.36,0.4 -0.88,0.6 -1.4,0.6Z" style="fill:#fff;fill-rule:nonzero;stroke:#fff;stroke-width:1px;"/></g><g><path d="M86,42.985c-0.52,0 -1.04,-0.2 -1.4,-0.6c-0.4,-0.36 -0.6,-0.88 -0.6,-1.4c0,-0.52 0.2,-1.04 0.6,-1.4c0.72,-0.76 2.08,-0.76 2.8,0c0.4,0.36 0.6,0.88 0.6,1.4c0,0.52 -0.2,1.04 -0.6,1.4c-0.36,0.4 -0.88,0.6 -1.4,0.6Z" style="fill:#fff;fill-rule:nonzero;stroke:#fff;stroke-width:1px;"/></g><g><path d="M78,42.995c-0.52,0 -1,-0.2 -1.4,-0.56c-0.4,-0.4 -0.6,-0.92 -0.6,-1.44c0,-0.52 0.2,-1.04 0.56,-1.4c0.88,-0.8 2.08,-0.76 2.84,-0.04c0.4,0.4 0.6,0.92 0.6,1.44c0,0.52 -0.2,1.04 -0.6,1.4c-0.36,0.4 -0.88,0.6 -1.4,0.6Z" style="fill:#fff;fill-rule:nonzero;stroke:#fff;stroke-width:1px;"/></g></g></g><defs><linearGradient id="_Linear1" x1="0" y1="0" x2="1" y2="0" gradientUnits="userSpaceOnUse" gradientTransform="matrix(49.65,33.74,-33.74,49.65,26.17,47.49)"><stop offset="0" style="stop-color:#009411;stop-opacity:1"/><stop offset="1" style="stop-color:#d0ffd5;stop-opacity:1"/></linearGradient></defs></svg>