<?xml version="1.0" encoding="UTF-8" standalone="no"?>
<svg
   xmlns:dc="http://purl.org/dc/elements/1.1/"
   xmlns:cc="http://creativecommons.org/ns#"
   xmlns:rdf="http://www.w3.org/1999/02/22-rdf-syntax-ns#"
   xmlns:svg="http://www.w3.org/2000/svg"
   xmlns="http://www.w3.org/2000/svg"
   xmlns:sodipodi="http://sodipodi.sourceforge.net/DTD/sodipodi-0.dtd"
   xmlns:inkscape="http://www.inkscape.org/namespaces/inkscape"
   width="32px"
   height="32px"
   version="1.1"
   xml:space="preserve"
   style="fill-rule:evenodd;clip-rule:evenodd;stroke-linejoin:round;stroke-miterlimit:2;"
   id="svg8"
   sodipodi:docname="icon-reddit--white.svg"
   inkscape:version="1.0.2 (1.0.2+r75+1)"><metadata
     id="metadata14"><rdf:RDF><cc:Work
         rdf:about=""><dc:format>image/svg+xml</dc:format><dc:type
           rdf:resource="http://purl.org/dc/dcmitype/StillImage" /></cc:Work></rdf:RDF></metadata><defs
     id="defs12" /><sodipodi:namedview
     pagecolor="#ffffff"
     bordercolor="#666666"
     borderopacity="1"
     objecttolerance="10"
     gridtolerance="10"
     guidetolerance="10"
     inkscape:pageopacity="0"
     inkscape:pageshadow="2"
     inkscape:window-width="1920"
     inkscape:window-height="1025"
     id="namedview10"
     showgrid="false"
     inkscape:zoom="1.75"
     inkscape:cx="-111.87388"
     inkscape:cy="-20.038364"
     inkscape:window-x="0"
     inkscape:window-y="27"
     inkscape:window-maximized="1"
     inkscape:current-layer="svg8" /><path
     fill="currentColor"
     d="m 12.48387,19.193552 c -0.89032,0 -1.60645,-0.71613 -1.60645,-1.5871 0,-0.89032 0.71613,-1.60645 1.60645,-1.60645 0.87742,0 1.5871,0.71613 1.5871,1.60645 0,0.87742 -0.71613,1.5871 -1.5871,1.5871 z M 32,16.000002 c 0,8.83871 -7.16129,16 -16,16 -8.83871,0 -16,-7.16129 -16,-16 C 0,7.161288 7.16129,-2e-6 16,-2e-6 c 8.83871,0 16,7.16129 16,16.000004 z m -8.53548,-2.65807 c -0.60646,0 -1.14194,0.25162 -1.53549,0.64517 -1.44516,-1 -3.39355,-1.64517 -5.55484,-1.71613 l 1.12258,-5.051624 3.5742,0.806464 c 0,0.87742 0.71613,1.58709 1.58709,1.58709 0.89033,0 1.60646,-0.72903 1.60646,-1.60645 0,-0.877424 -0.71613,-1.606454 -1.60646,-1.606454 -0.6258,0 -1.16129,0.37419 -1.4258,0.89032 l -3.94839,-0.87742 c -0.19355,-0.0516 -0.39355,0.0903 -0.44516,0.28387 l -1.23226,5.574204 c -2.14193,0.0903 -4.07097,0.72903 -5.51613,1.72903 -0.39355,-0.4129 -0.94838,-0.65807 -1.55484,-0.65807 -2.25161,0 -2.98709,3.02581 -0.92903,4.05162 -0.071,0.32258 -0.10968,0.65806 -0.10968,1 0,3.39355 3.81936,6.14193 8.51613,6.14193 4.71613,0 8.53549,-2.74838 8.53549,-6.14193 0,-0.34194 -0.0387,-0.69678 -0.12258,-1.01936 2.01935,-1.03225 1.27742,-4.03226 -0.96129,-4.03226 z m -4.44517,7.49678 c -1.17419,1.17419 -4.90967,1.15484 -6.0387,0 -0.14194,-0.14194 -0.39355,-0.14194 -0.53549,0 -0.16129,0.16129 -0.16129,0.4129 0,0.55484 1.47097,1.47097 5.63226,1.47097 7.10968,0 0.16129,-0.14194 0.16129,-0.39355 0,-0.55484 -0.14194,-0.14194 -0.39355,-0.14194 -0.53549,0 z m 0.49678,-4.83871 c -0.87742,0 -1.5871,0.71613 -1.5871,1.60645 0,0.87742 0.71613,1.5871 1.5871,1.5871 0.89032,0 1.60645,-0.71613 1.60645,-1.5871 0,-0.89032 -0.70968,-1.60645 -1.60645,-1.60645 z"
     id="path4"
     style="fill:#ffffff;fill-opacity:1;stroke-width:1" /></svg>
