<?xml version="1.0" encoding="UTF-8" standalone="no"?>
<svg
   xmlns:dc="http://purl.org/dc/elements/1.1/"
   xmlns:cc="http://creativecommons.org/ns#"
   xmlns:rdf="http://www.w3.org/1999/02/22-rdf-syntax-ns#"
   xmlns:svg="http://www.w3.org/2000/svg"
   xmlns="http://www.w3.org/2000/svg"
   xmlns:xlink="http://www.w3.org/1999/xlink"
   xmlns:sodipodi="http://sodipodi.sourceforge.net/DTD/sodipodi-0.dtd"
   xmlns:inkscape="http://www.inkscape.org/namespaces/inkscape"
   width="211px"
   height="67px"
   viewBox="0 0 211 67"
   version="1.1"
   id="svg21"
   sodipodi:docname="img-buy-pandaverse-nfts.svg"
   inkscape:version="1.0.2 (1.0.2+r75+1)">
  <metadata
     id="metadata25">
    <rdf:RDF>
      <cc:Work
         rdf:about="">
        <dc:format>image/svg+xml</dc:format>
        <dc:type
           rdf:resource="http://purl.org/dc/dcmitype/StillImage" />
      </cc:Work>
    </rdf:RDF>
  </metadata>
  <sodipodi:namedview
     pagecolor="#ffffff"
     bordercolor="#666666"
     borderopacity="1"
     objecttolerance="10"
     gridtolerance="10"
     guidetolerance="10"
     inkscape:pageopacity="0"
     inkscape:pageshadow="2"
     inkscape:window-width="1920"
     inkscape:window-height="1025"
     id="namedview23"
     showgrid="false"
     inkscape:zoom="2.978673"
     inkscape:cx="149.82456"
     inkscape:cy="7.3479327"
     inkscape:window-x="0"
     inkscape:window-y="27"
     inkscape:window-maximized="1"
     inkscape:current-layer="svg21"
     inkscape:document-rotation="0" />
  <title
     id="title2">BittrexButton</title>
  <defs
     id="defs9">
    <linearGradient
       x1="29.7357383%"
       y1="48.4386243%"
       x2="86.1631498%"
       y2="52.0688999%"
       id="linearGradient926">
      <stop
         stop-color="#6DFF86"
         offset="0%"
         id="stop922"
         style="stop-color:#009411;stop-opacity:1" />
      <stop
         stop-color="#91AFFF"
         offset="100%"
         id="stop924"
         style="stop-color:#d0ffd5;stop-opacity:1" />
    </linearGradient>
    <linearGradient
       x1="29.7357383%"
       y1="48.4386243%"
       x2="86.1631498%"
       y2="52.0688999%"
       id="linearGradient912">
      <stop
         stop-color="#6DFF86"
         offset="0%"
         id="stop908"
         style="stop-color:#009411;stop-opacity:1" />
      <stop
         stop-color="#91AFFF"
         offset="100%"
         id="stop910"
         style="stop-color:#d0ffd5;stop-opacity:1" />
    </linearGradient>
    <linearGradient
       x1="29.7357383%"
       y1="48.4386243%"
       x2="86.1631498%"
       y2="52.0688999%"
       id="linearGradient-1">
      <stop
         stop-color="#6DFF86"
         offset="0%"
         id="stop4" />
      <stop
         stop-color="#91AFFF"
         offset="100%"
         id="stop6" />
    </linearGradient>
    <linearGradient
       inkscape:collect="always"
       xlink:href="#linearGradient926"
       id="linearGradient928"
       gradientUnits="userSpaceOnUse"
       gradientTransform="scale(1.7837652,0.56061191)"
       x1="34.446827"
       y1="55.242306"
       x2="100.87797"
       y2="59.516171" />
  </defs>
  <g
     id="Group-25"
     fill="#000001"
     fill-opacity="0.6"
     stroke="url(#linearGradient-1)"
     stroke-width="2"
     style="fill-rule:evenodd;stroke:url(#linearGradient928);fill:#002905;fill-opacity:1"
     transform="translate(1.3968,1.4)">
    <g
       id="Group-32"
       style="stroke:url(#linearGradient928);fill:#002905;fill-opacity:1">
      <path
         d="m 13.356423,63.996654 c -0.537997,0 -1.061882,-0.0067 -1.594587,-0.01841 C 10.77404,63.953153 9.6045591,63.899613 8.4633011,63.705532 7.3873082,63.521489 6.4312621,63.220328 5.5422451,62.788665 4.6214775,62.346962 3.7941977,61.774757 3.0780451,61.08878 2.3477811,60.407822 1.7462835,59.62815 1.27708,58.751438 0.82022405,57.906515 0.50800973,56.999686 0.31927001,55.979086 0.10407144,54.85308 0.04938984,53.712015 0.02645884,52.841995 0.01411138,52.488968 0,51.314441 0,51.314441 V 12.663808 c 0,0 0.0158753,-1.156122 0.02645884,-1.495764 0.022931,-0.876713 0.0776126,-2.0177773 0.29104725,-3.132072 C 0.50624581,7.0086793 0.81846013,6.1018509 1.27708,5.2552546 1.7445195,4.3768692 2.3460172,3.5921782 3.0674616,2.9162397 3.7959616,2.22357 4.6267692,1.6496915 5.5404812,1.2046429 6.4471374,0.76795984 7.4014196,0.47014535 8.4562454,0.29446826 9.6451293,0.09369445 10.848125,0.04182788 11.765364,0.02007738 L 13.356423,0 H 194.63123 l 1.61046,0.0217505 c 0.90489,0.02007738 2.10965,0.07194395 3.27913,0.27104465 1.06188,0.1773502 2.02499,0.47683781 2.94752,0.91686705 0.90489,0.4400293 1.73217,1.0139078 2.45361,1.699885 0.72498,0.6792848 1.32647,1.4689951 1.80626,2.3490537 0.45509,0.8549618 0.76378,1.7617902 0.94546,2.7589668 0.20285,1.0557357 0.26636,2.1399143 0.30516,3.1571683 0.005,0.473492 0.005,0.983792 0.005,1.489072 C 208,13.291227 208,13.888529 208,14.49085 v 35.016627 c 0,0.60734 0,1.201296 -0.0159,1.798598 0,0.543763 0,1.042351 -0.007,1.555998 -0.037,0.985464 -0.10055,2.06797 -0.30163,3.100282 -0.18345,1.025619 -0.49214,1.932448 -0.95252,2.794102 -0.4745,0.87002 -1.07952,1.654711 -1.79038,2.318938 -0.73027,0.699362 -1.55754,1.269894 -2.46773,1.709923 -0.91724,0.441703 -1.85035,0.734498 -2.94399,0.920214 -1.12891,0.194081 -2.29839,0.247621 -3.29677,0.272717 -0.51506,0.01171 -1.05835,0.01841 -1.584,0.01841 L 192.72796,64 13.356423,63.996654"
         id="Fill-4-Copy"
         style="stroke:url(#linearGradient928);fill:#002905;fill-opacity:1" />
    </g>
  </g>
  <g
     aria-label="Buy"
     id="text862"
     style="font-size:16.9027px;line-height:1.25;font-family:'Maven Pro';-inkscape-font-specification:'Maven Pro';letter-spacing:0px;word-spacing:0px;fill:#ffffff;fill-opacity:1;stroke-width:0.999999">
    <path
       d="M 22.418736,24.531925 V 13.257956 h 3.738732 q 3.746985,0 3.746985,3.012444 0,0.470437 -0.123799,0.874847 -0.123799,0.40441 -0.305371,0.643755 -0.173318,0.239345 -0.346637,0.420917 -0.165066,0.173319 -0.305371,0.239345 l -0.115546,0.08253 q 0.08253,0.01651 0.198079,0.06603 0.123799,0.04952 0.453929,0.272358 0.330131,0.222838 0.569476,0.511703 0.247598,0.280611 0.445677,0.80882 0.206332,0.519956 0.206332,1.147205 0,3.194016 -4.08537,3.194016 z m 1.221484,-1.130698 h 2.954671 q 1.287511,0 2.030305,-0.445677 0.742795,-0.45393 0.742795,-1.683667 0,-0.519956 -0.181572,-0.891353 -0.173319,-0.379651 -0.42917,-0.585983 -0.255852,-0.214585 -0.660262,-0.321877 -0.40441,-0.115546 -0.751048,-0.148559 -0.346637,-0.03301 -0.800567,-0.03301 H 23.64022 Z m 0,-5.257334 h 2.789606 q 1.031659,0 1.642401,-0.354891 0.618995,-0.35489 0.618995,-1.419563 0,-1.097685 -0.602488,-1.518601 -0.594236,-0.429171 -1.81572,-0.429171 H 23.64022 Z"
       style="fill:#ffffff;fill-opacity:1;stroke-width:0.999999"
       id="path870" />
    <path
       d="m 32.702312,20.983018 v -4.885936 h 1.213231 v 4.951963 q 0,1.28751 0.561223,1.889999 0.561222,0.594235 1.757946,0.594235 1.180218,0 1.749694,-0.594235 0.569476,-0.602489 0.569476,-1.889999 v -4.951963 h 1.213231 v 4.885936 q 0,1.757947 -0.924367,2.72358 -0.916113,0.95738 -2.608034,0.95738 -1.69192,0 -2.616287,-0.95738 -0.916113,-0.965633 -0.916113,-2.72358 z"
       style="fill:#ffffff;fill-opacity:1;stroke-width:0.999999"
       id="path872" />
    <path
       d="m 41.541566,16.097082 h 1.304017 l 2.401702,6.676896 2.434716,-6.676896 h 1.304016 l -3.449867,9.26017 q -0.899607,2.434716 -2.657554,2.434716 -0.40441,0 -0.792314,-0.148559 v -1.114192 q 0.338384,0.148559 0.726288,0.148559 0.321878,0 0.635502,-0.239345 0.313624,-0.231092 0.511703,-0.561223 0.206332,-0.33013 0.371397,-0.668515 0.173319,-0.338384 0.239345,-0.577729 l 0.08253,-0.231091 z"
       style="fill:#ffffff;fill-opacity:1;stroke-width:0.999999"
       id="path874" />
  </g>
  <g
     aria-label="Pandaverse"
     id="text862-3"
     style="font-size:25.2152px;line-height:1.25;font-family:'Maven Pro';-inkscape-font-specification:'Maven Pro';letter-spacing:0px;word-spacing:0px;fill:#ffffff;fill-opacity:1;stroke-width:0.999997">
    <path
       d="M 58.876099,29.124969 V 12.306628 h 6.279176 q 2.97953,0 4.604729,1.477453 1.625198,1.477453 1.625198,4.173805 0,2.696352 -1.625198,4.173805 -1.625199,1.465141 -4.604729,1.465141 h -3.250397 v 5.528137 z m 3.028779,-8.273737 h 3.028779 q 1.994561,0 2.720976,-0.726415 0.726414,-0.738726 0.726414,-2.166931 0,-1.415893 -0.738726,-2.129995 -0.726415,-0.726414 -2.708664,-0.726414 h -3.028779 z"
       style="font-weight:bold;fill:#ffffff;fill-opacity:1;stroke-width:0.999997"
       id="path849" />
    <path
       d="m 73.293579,25.012725 q 0,-0.381676 0.07387,-0.775663 0.07387,-0.4063 0.381675,-1.009593 0.320115,-0.603293 0.861848,-1.058841 0.541733,-0.455548 1.600574,-0.775663 1.058841,-0.332427 2.499358,-0.332427 1.034218,0 2.21618,0.172369 0,-2.376237 -2.671728,-2.376237 -2.117683,0 -3.681321,0.64023 v -2.45011 q 1.736008,-0.70179 3.853691,-0.70179 2.696352,0 4.124557,1.378956 1.428204,1.366644 1.428204,3.964499 v 3.398143 q 0,1.736007 -1.305083,2.991842 -1.292772,1.243523 -3.989124,1.243523 -2.770225,0 -4.08762,-1.255835 -1.305084,-1.255835 -1.305084,-3.053403 z m 2.991843,-0.381676 q 0,2.019186 2.376237,2.019186 0.01231,0 0.02462,0 2.265428,0 2.265428,-1.908377 v -1.588262 q -1.058841,-0.147745 -1.80988,-0.160057 -2.844097,0 -2.856409,1.63751 z"
       style="font-weight:bold;fill:#ffffff;fill-opacity:1;stroke-width:0.999997"
       id="path851" />
    <path
       d="M 87.440192,29.124969 V 17.723956 Q 90.210417,16.345 93.214571,16.345 q 2.62248,0 4.099933,1.378956 1.477453,1.366644 1.477453,3.841378 v 7.559635 H 95.787802 V 21.30678 q 0,-0.504797 -0.0985,-0.837224 -0.08618,-0.344739 -0.369363,-0.714102 -0.270866,-0.369363 -0.898784,-0.554045 -0.627918,-0.184681 -1.612886,-0.184681 -1.10809,0 -2.339301,0.221617 v 9.886624 z"
       style="font-weight:bold;fill:#ffffff;fill-opacity:1;stroke-width:0.999997"
       id="path853" />
    <path
       d="m 101.93155,22.698048 q 0,-3.078027 1.50207,-4.715538 1.50208,-1.63751 4.32155,-1.63751 1.0096,0 2.09306,0.196993 v -4.814034 h 3.02878 v 13.358639 q 0,1.736007 -1.31739,2.991842 -1.30509,1.243523 -4.00144,1.243523 -0.62792,0 -1.25583,-0.0985 -0.61561,-0.0985 -1.45283,-0.517108 -0.82491,-0.418612 -1.44052,-1.083466 -0.61561,-0.664854 -1.04653,-1.945313 -0.43092,-1.292772 -0.43092,-2.979531 z m 3.02878,-0.160057 q 0,2.21618 0.57866,3.201148 0.57867,0.984969 2.01919,0.984969 2.29005,0 2.29005,-1.354332 v -6.426921 q -0.88647,-0.196994 -1.99456,-0.209306 -1.41589,0 -2.15462,0.849536 -0.73872,0.837223 -0.73872,2.954906 z"
       style="font-weight:bold;fill:#ffffff;fill-opacity:1;stroke-width:0.999997"
       id="path855" />
    <path
       d="m 115.74573,25.012725 q 0,-0.381676 0.0739,-0.775663 0.0739,-0.4063 0.38167,-1.009593 0.32012,-0.603293 0.86185,-1.058841 0.54173,-0.455548 1.60057,-0.775663 1.05885,-0.332427 2.49936,-0.332427 1.03422,0 2.21618,0.172369 0,-2.376237 -2.67173,-2.376237 -2.11768,0 -3.68132,0.64023 v -2.45011 q 1.73601,-0.70179 3.85369,-0.70179 2.69636,0 4.12456,1.378956 1.42821,1.366644 1.42821,3.964499 v 3.398143 q 0,1.736007 -1.30509,2.991842 -1.29277,1.243523 -3.98912,1.243523 -2.77023,0 -4.08762,-1.255835 -1.30509,-1.255835 -1.30509,-3.053403 z m 2.99185,-0.381676 q 0,2.019186 2.37623,2.019186 0.0123,0 0.0246,0 2.26543,0 2.26543,-1.908377 v -1.588262 q -1.05885,-0.147745 -1.80988,-0.160057 -2.8441,0 -2.85641,1.63751 z"
       style="font-weight:bold;fill:#ffffff;fill-opacity:1;stroke-width:0.999997"
       id="path857" />
    <path
       d="m 128.34102,16.541993 h 3.22577 l 3.1519,9.504949 3.1519,-9.504949 h 3.2504 l -4.81404,12.582976 h -3.1519 z"
       style="font-weight:bold;fill:#ffffff;fill-opacity:1;stroke-width:0.999997"
       id="path859" />
    <path
       d="m 142.857,22.968915 q 0,-3.028779 1.34202,-4.838659 1.35433,-1.80988 4.28461,-1.80988 2.77023,0 4.18612,1.760631 1.42821,1.760632 1.42821,4.333863 0,1.058841 -0.0493,1.563638 h -8.08906 q 0.12312,1.63751 0.97266,2.191555 0.86185,0.554045 2.22849,0.554045 2.21618,0 4.28461,-0.972657 v 2.437798 q -2.09305,1.132714 -4.74016,1.132714 -0.83722,0 -1.57595,-0.135433 -0.73872,-0.135433 -1.55132,-0.566357 -0.80029,-0.430924 -1.39127,-1.095778 -0.57867,-0.664854 -0.96035,-1.834504 -0.36936,-1.181963 -0.36936,-2.720976 z m 3.10265,-1.083466 h 5.07259 q -0.12312,-1.305084 -0.77566,-2.203868 -0.64023,-0.898784 -1.77295,-0.898784 -1.13271,0 -1.77294,0.738727 -0.62792,0.726414 -0.75104,2.363925 z"
       style="font-weight:bold;fill:#ffffff;fill-opacity:1;stroke-width:0.999997"
       id="path861" />
    <path
       d="M 157.05286,29.124969 V 17.674708 q 0.3078,-0.147746 0.84953,-0.344739 0.54174,-0.209306 2.17925,-0.57867 1.63751,-0.381675 3.25039,-0.406299 v 2.622479 q -1.89606,0.02462 -3.25039,0.418612 v 9.738878 z"
       style="font-weight:bold;fill:#ffffff;fill-opacity:1;stroke-width:0.999997"
       id="path863" />
    <path
       d="m 165.54821,20.272563 q 0,-1.896065 1.32971,-2.905658 1.34202,-1.021905 3.33658,-1.021905 1.87144,0 3.43508,0.898784 v 2.302364 q -1.28046,-0.603293 -2.90566,-0.603293 -2.16693,0 -2.16693,1.058841 0,0.529421 0.61561,0.837224 0.6156,0.29549 1.50207,0.52942 0.88648,0.221618 1.76064,0.615606 0.88647,0.381675 1.50207,1.305084 0.62792,0.923408 0.62792,2.351612 0,1.588263 -1.29277,2.634792 -1.28046,1.046529 -3.39814,1.046529 -2.16693,0 -3.98913,-1.034217 v -2.696352 q 1.66214,1.10809 3.5582,1.10809 1.30509,0 1.69907,-0.295491 0.39399,-0.307802 0.39399,-0.911096 0,-0.554045 -0.62792,-0.886472 -0.6156,-0.344739 -1.50207,-0.590981 -0.87416,-0.258554 -1.76063,-0.603293 -0.87416,-0.344739 -1.50208,-1.132714 -0.61561,-0.800288 -0.61561,-2.006874 z"
       style="font-weight:bold;fill:#ffffff;fill-opacity:1;stroke-width:0.999997"
       id="path865" />
    <path
       d="m 177.13391,22.968915 q 0,-3.028779 1.34202,-4.838659 1.35433,-1.80988 4.28461,-1.80988 2.77023,0 4.18612,1.760631 1.4282,1.760632 1.4282,4.333863 0,1.058841 -0.0492,1.563638 h -8.08906 q 0.12312,1.63751 0.97266,2.191555 0.86184,0.554045 2.22849,0.554045 2.21618,0 4.28461,-0.972657 v 2.437798 q -2.09306,1.132714 -4.74016,1.132714 -0.83722,0 -1.57595,-0.135433 -0.73873,-0.135433 -1.55132,-0.566357 -0.80029,-0.430924 -1.39127,-1.095778 -0.57867,-0.664854 -0.96035,-1.834504 -0.36936,-1.181963 -0.36936,-2.720976 z m 3.10265,-1.083466 h 5.07259 q -0.12312,-1.305084 -0.77566,-2.203868 -0.64023,-0.898784 -1.77295,-0.898784 -1.13271,0 -1.77294,0.738727 -0.62792,0.726414 -0.75104,2.363925 z"
       style="font-weight:bold;fill:#ffffff;fill-opacity:1;stroke-width:0.999997"
       id="path867" />
  </g>
  <g
     aria-label="NFTs"
     id="text892"
     style="font-size:29.4841px;line-height:1.25;font-family:'Maven Pro';-inkscape-font-specification:'Maven Pro';letter-spacing:0px;word-spacing:0px;fill:#ffffff;fill-opacity:1;stroke-width:0.999996">
    <path
       d="M 22.418792,54.841698 V 35.176033 h 4.016633 L 36.541791,49.745325 V 35.176033 h 3.541547 V 54.841698 H 36.124292 L 25.960339,40.157234 v 14.684464 z"
       style="font-weight:bold;fill:#ffffff;fill-opacity:1;stroke-width:0.999996"
       id="path877" />
    <path
       d="M 45.222901,54.841698 V 35.176033 H 57.93504 v 3.181634 h -9.170591 v 4.981201 h 7.932489 v 3.339995 h -7.932489 v 8.162835 z"
       style="font-weight:bold;fill:#ffffff;fill-opacity:1;stroke-width:0.999996"
       id="path879" />
    <path
       d="M 60.065728,38.71758 V 35.176033 H 76.189845 V 38.71758 H 69.884163 V 54.841698 H 66.342616 V 38.71758 Z"
       style="font-weight:bold;fill:#ffffff;fill-opacity:1;stroke-width:0.999996"
       id="path881" />
    <path
       d="m 76.290621,44.49059 q 0,-2.217066 1.554825,-3.397582 1.569222,-1.194912 3.901461,-1.194912 2.188273,0 4.016633,1.050947 v 2.692152 q -1.49724,-0.70543 -3.397582,-0.70543 -2.53379,0 -2.53379,1.238101 0,0.619051 0.719827,0.978965 0.719826,0.345517 1.756377,0.619051 1.03655,0.259137 2.058704,0.719826 1.03655,0.446293 1.756377,1.526033 0.734223,1.07974 0.734223,2.749738 0,1.857153 -1.511636,3.080858 -1.497239,1.223705 -3.973443,1.223705 -2.53379,0 -4.664477,-1.209309 v -3.15284 q 1.943532,1.295688 4.160598,1.295688 1.526033,0 1.986722,-0.345517 0.460689,-0.359914 0.460689,-1.065344 0,-0.647844 -0.734223,-1.03655 -0.719827,-0.403103 -1.756377,-0.691034 -1.022154,-0.302327 -2.058705,-0.70543 -1.022153,-0.403103 -1.756377,-1.324481 -0.719826,-0.935775 -0.719826,-2.346635 z"
       style="font-weight:bold;fill:#ffffff;fill-opacity:1;stroke-width:0.999996"
       id="path883" />
  </g>
</svg>
